<svg width="512" height="453" viewBox="0 0 512 453" fill="none" xmlns="http://www.w3.org/2000/svg">
<path d="M110.984 30.4413C169.68 74.6573 232.824 164.297 256 212.401V339.457C256 336.753 254.96 339.809 252.72 346.393C240.624 382.041 193.376 521.169 85.336 409.945C28.448 351.385 54.784 292.825 158.336 275.145C99.096 285.257 32.496 268.545 14.224 203.025C8.96 184.177 0 68.0813 0 52.4013C0 -26.1427 68.632 -1.45471 110.984 30.4413ZM401.016 30.4413C342.32 74.6573 279.176 164.297 256 212.401V339.457C256 336.753 257.04 339.809 259.28 346.393C271.376 382.041 318.624 521.169 426.664 409.945C483.552 351.385 457.216 292.825 353.664 275.145C412.904 285.257 479.504 268.545 497.776 203.025C503.04 184.177 512 68.0813 512 52.4013C512 -26.1427 443.376 -1.45471 401.016 30.4413Z" fill="#2733f5"/>
</svg>
